<mxfile host="app.diagrams.net" modified="2021-05-14T01:20:19.410Z" agent="5.0 (Windows NT 10.0; Win64; x64) AppleWebKit/537.36 (KHTML, like Gecko) Chrome/90.0.4430.212 Safari/537.36" etag="b0GUxR7g9duJlyH2yfZ5" version="14.6.13" type="github">
  <diagram id="9osPnradNcDQ_kgOyWjN" name="Page-1">
    <mxGraphModel dx="1038" dy="556" grid="1" gridSize="10" guides="1" tooltips="1" connect="1" arrows="1" fold="1" page="1" pageScale="1" pageWidth="827" pageHeight="1169" math="0" shadow="0">
      <root>
        <mxCell id="0" />
        <mxCell id="1" parent="0" />
        <mxCell id="ooogNlG7D9JZ5reyaP-d-3" style="edgeStyle=orthogonalEdgeStyle;rounded=0;orthogonalLoop=1;jettySize=auto;html=1;exitX=0.5;exitY=1;exitDx=0;exitDy=0;entryX=0.5;entryY=0;entryDx=0;entryDy=0;" edge="1" parent="1" source="ooogNlG7D9JZ5reyaP-d-1" target="ooogNlG7D9JZ5reyaP-d-2">
          <mxGeometry relative="1" as="geometry" />
        </mxCell>
        <mxCell id="ooogNlG7D9JZ5reyaP-d-1" value="&lt;font style=&quot;vertical-align: inherit&quot;&gt;&lt;font style=&quot;vertical-align: inherit&quot;&gt;Inicio&lt;/font&gt;&lt;/font&gt;" style="rounded=1;whiteSpace=wrap;html=1;" vertex="1" parent="1">
          <mxGeometry x="350" y="140" width="110" height="80" as="geometry" />
        </mxCell>
        <mxCell id="ooogNlG7D9JZ5reyaP-d-4" value="&lt;font style=&quot;vertical-align: inherit&quot;&gt;&lt;font style=&quot;vertical-align: inherit&quot;&gt;no&lt;/font&gt;&lt;/font&gt;" style="edgeStyle=orthogonalEdgeStyle;rounded=0;orthogonalLoop=1;jettySize=auto;html=1;exitX=0;exitY=0.5;exitDx=0;exitDy=0;entryX=0;entryY=0.5;entryDx=0;entryDy=0;" edge="1" parent="1" source="ooogNlG7D9JZ5reyaP-d-2" target="ooogNlG7D9JZ5reyaP-d-1">
          <mxGeometry relative="1" as="geometry" />
        </mxCell>
        <mxCell id="ooogNlG7D9JZ5reyaP-d-6" value="&lt;font style=&quot;vertical-align: inherit&quot;&gt;&lt;font style=&quot;vertical-align: inherit&quot;&gt;si&lt;/font&gt;&lt;/font&gt;" style="edgeStyle=orthogonalEdgeStyle;rounded=0;orthogonalLoop=1;jettySize=auto;html=1;exitX=0.5;exitY=1;exitDx=0;exitDy=0;entryX=0.5;entryY=0;entryDx=0;entryDy=0;" edge="1" parent="1" source="ooogNlG7D9JZ5reyaP-d-2" target="ooogNlG7D9JZ5reyaP-d-5">
          <mxGeometry relative="1" as="geometry" />
        </mxCell>
        <mxCell id="ooogNlG7D9JZ5reyaP-d-2" value="&lt;font style=&quot;vertical-align: inherit&quot;&gt;&lt;font style=&quot;vertical-align: inherit&quot;&gt;&lt;font style=&quot;vertical-align: inherit&quot;&gt;&lt;font style=&quot;vertical-align: inherit&quot;&gt;&lt;font style=&quot;vertical-align: inherit&quot;&gt;&lt;font style=&quot;vertical-align: inherit&quot;&gt;modulo bluetooth &lt;br&gt;se conecta con&lt;br&gt;&amp;nbsp;un dispositivo&lt;/font&gt;&lt;/font&gt;&lt;/font&gt;&lt;/font&gt;&lt;/font&gt;&lt;/font&gt;" style="rhombus;whiteSpace=wrap;html=1;" vertex="1" parent="1">
          <mxGeometry x="338.75" y="280" width="161.25" height="100" as="geometry" />
        </mxCell>
        <mxCell id="ooogNlG7D9JZ5reyaP-d-8" style="edgeStyle=orthogonalEdgeStyle;rounded=0;orthogonalLoop=1;jettySize=auto;html=1;exitX=0.5;exitY=1;exitDx=0;exitDy=0;" edge="1" parent="1" source="ooogNlG7D9JZ5reyaP-d-5">
          <mxGeometry relative="1" as="geometry">
            <mxPoint x="419" y="580" as="targetPoint" />
          </mxGeometry>
        </mxCell>
        <mxCell id="ooogNlG7D9JZ5reyaP-d-5" value="&lt;font style=&quot;vertical-align: inherit&quot;&gt;&lt;font style=&quot;vertical-align: inherit&quot;&gt;mi microcontrolador&amp;nbsp;&lt;br&gt;se prepara para&amp;nbsp;&lt;br&gt;recibir datos&lt;br&gt;&lt;/font&gt;&lt;/font&gt;" style="shape=hexagon;perimeter=hexagonPerimeter2;whiteSpace=wrap;html=1;fixedSize=1;" vertex="1" parent="1">
          <mxGeometry x="359.38" y="430" width="120" height="80" as="geometry" />
        </mxCell>
        <mxCell id="ooogNlG7D9JZ5reyaP-d-10" style="edgeStyle=orthogonalEdgeStyle;rounded=0;orthogonalLoop=1;jettySize=auto;html=1;exitX=0.5;exitY=1;exitDx=0;exitDy=0;entryX=0.5;entryY=0;entryDx=0;entryDy=0;" edge="1" parent="1" source="ooogNlG7D9JZ5reyaP-d-7" target="ooogNlG7D9JZ5reyaP-d-9">
          <mxGeometry relative="1" as="geometry" />
        </mxCell>
        <mxCell id="ooogNlG7D9JZ5reyaP-d-7" value="recepción de datos" style="whiteSpace=wrap;html=1;aspect=fixed;" vertex="1" parent="1">
          <mxGeometry x="380" y="585" width="80" height="80" as="geometry" />
        </mxCell>
        <mxCell id="ooogNlG7D9JZ5reyaP-d-19" style="edgeStyle=orthogonalEdgeStyle;rounded=0;orthogonalLoop=1;jettySize=auto;html=1;exitX=0;exitY=0.5;exitDx=0;exitDy=0;entryX=0.5;entryY=0;entryDx=0;entryDy=0;" edge="1" parent="1" source="ooogNlG7D9JZ5reyaP-d-9" target="ooogNlG7D9JZ5reyaP-d-12">
          <mxGeometry relative="1" as="geometry" />
        </mxCell>
        <mxCell id="ooogNlG7D9JZ5reyaP-d-20" style="edgeStyle=orthogonalEdgeStyle;rounded=0;orthogonalLoop=1;jettySize=auto;html=1;exitX=1;exitY=0.5;exitDx=0;exitDy=0;entryX=0.5;entryY=0;entryDx=0;entryDy=0;" edge="1" parent="1" source="ooogNlG7D9JZ5reyaP-d-9" target="ooogNlG7D9JZ5reyaP-d-16">
          <mxGeometry relative="1" as="geometry" />
        </mxCell>
        <mxCell id="ooogNlG7D9JZ5reyaP-d-9" value="el sensor emite la señal de&amp;nbsp;&lt;br&gt;la distancia mayor a los&lt;br&gt;30cm" style="rhombus;whiteSpace=wrap;html=1;" vertex="1" parent="1">
          <mxGeometry x="320" y="720" width="200" height="90" as="geometry" />
        </mxCell>
        <mxCell id="ooogNlG7D9JZ5reyaP-d-21" style="edgeStyle=orthogonalEdgeStyle;rounded=0;orthogonalLoop=1;jettySize=auto;html=1;exitX=0.5;exitY=1;exitDx=0;exitDy=0;entryX=0.5;entryY=0;entryDx=0;entryDy=0;" edge="1" parent="1" source="ooogNlG7D9JZ5reyaP-d-12" target="ooogNlG7D9JZ5reyaP-d-13">
          <mxGeometry relative="1" as="geometry" />
        </mxCell>
        <mxCell id="ooogNlG7D9JZ5reyaP-d-12" value="encender alarma" style="whiteSpace=wrap;html=1;aspect=fixed;" vertex="1" parent="1">
          <mxGeometry x="200" y="800" width="80" height="80" as="geometry" />
        </mxCell>
        <mxCell id="ooogNlG7D9JZ5reyaP-d-22" style="edgeStyle=orthogonalEdgeStyle;rounded=0;orthogonalLoop=1;jettySize=auto;html=1;exitX=0.5;exitY=1;exitDx=0;exitDy=0;entryX=0.5;entryY=0;entryDx=0;entryDy=0;" edge="1" parent="1" source="ooogNlG7D9JZ5reyaP-d-13" target="ooogNlG7D9JZ5reyaP-d-14">
          <mxGeometry relative="1" as="geometry" />
        </mxCell>
        <mxCell id="ooogNlG7D9JZ5reyaP-d-13" value="encender el servo motot" style="whiteSpace=wrap;html=1;aspect=fixed;" vertex="1" parent="1">
          <mxGeometry x="200" y="920" width="80" height="80" as="geometry" />
        </mxCell>
        <mxCell id="ooogNlG7D9JZ5reyaP-d-27" style="edgeStyle=orthogonalEdgeStyle;rounded=0;orthogonalLoop=1;jettySize=auto;html=1;exitX=1;exitY=0.5;exitDx=0;exitDy=0;entryX=0;entryY=0.5;entryDx=0;entryDy=0;" edge="1" parent="1" source="ooogNlG7D9JZ5reyaP-d-14" target="ooogNlG7D9JZ5reyaP-d-15">
          <mxGeometry relative="1" as="geometry" />
        </mxCell>
        <mxCell id="ooogNlG7D9JZ5reyaP-d-14" value="encender led rojo" style="whiteSpace=wrap;html=1;aspect=fixed;" vertex="1" parent="1">
          <mxGeometry x="200" y="1030" width="80" height="80" as="geometry" />
        </mxCell>
        <mxCell id="ooogNlG7D9JZ5reyaP-d-28" style="edgeStyle=orthogonalEdgeStyle;rounded=0;orthogonalLoop=1;jettySize=auto;html=1;exitX=0.5;exitY=1;exitDx=0;exitDy=0;entryX=0;entryY=0.25;entryDx=0;entryDy=0;" edge="1" parent="1" source="ooogNlG7D9JZ5reyaP-d-15" target="ooogNlG7D9JZ5reyaP-d-1">
          <mxGeometry relative="1" as="geometry">
            <Array as="points">
              <mxPoint x="430" y="1115" />
              <mxPoint x="190" y="1115" />
              <mxPoint x="190" y="160" />
            </Array>
          </mxGeometry>
        </mxCell>
        <mxCell id="ooogNlG7D9JZ5reyaP-d-15" value="abrir puerta" style="rounded=0;whiteSpace=wrap;html=1;" vertex="1" parent="1">
          <mxGeometry x="370" y="1045" width="120" height="50" as="geometry" />
        </mxCell>
        <mxCell id="ooogNlG7D9JZ5reyaP-d-23" style="edgeStyle=orthogonalEdgeStyle;rounded=0;orthogonalLoop=1;jettySize=auto;html=1;exitX=0.5;exitY=1;exitDx=0;exitDy=0;" edge="1" parent="1" source="ooogNlG7D9JZ5reyaP-d-16" target="ooogNlG7D9JZ5reyaP-d-17">
          <mxGeometry relative="1" as="geometry" />
        </mxCell>
        <mxCell id="ooogNlG7D9JZ5reyaP-d-16" value="encender alarma" style="whiteSpace=wrap;html=1;aspect=fixed;" vertex="1" parent="1">
          <mxGeometry x="590" y="800" width="80" height="80" as="geometry" />
        </mxCell>
        <mxCell id="ooogNlG7D9JZ5reyaP-d-24" style="edgeStyle=orthogonalEdgeStyle;rounded=0;orthogonalLoop=1;jettySize=auto;html=1;exitX=0.5;exitY=1;exitDx=0;exitDy=0;" edge="1" parent="1" source="ooogNlG7D9JZ5reyaP-d-17" target="ooogNlG7D9JZ5reyaP-d-18">
          <mxGeometry relative="1" as="geometry" />
        </mxCell>
        <mxCell id="ooogNlG7D9JZ5reyaP-d-17" value="apagar servomotor" style="whiteSpace=wrap;html=1;aspect=fixed;" vertex="1" parent="1">
          <mxGeometry x="590" y="920" width="80" height="80" as="geometry" />
        </mxCell>
        <mxCell id="ooogNlG7D9JZ5reyaP-d-25" style="edgeStyle=orthogonalEdgeStyle;rounded=0;orthogonalLoop=1;jettySize=auto;html=1;exitX=1;exitY=0.5;exitDx=0;exitDy=0;entryX=1;entryY=0.5;entryDx=0;entryDy=0;" edge="1" parent="1" source="ooogNlG7D9JZ5reyaP-d-18" target="ooogNlG7D9JZ5reyaP-d-5">
          <mxGeometry relative="1" as="geometry" />
        </mxCell>
        <mxCell id="ooogNlG7D9JZ5reyaP-d-18" value="encender led verde" style="whiteSpace=wrap;html=1;aspect=fixed;" vertex="1" parent="1">
          <mxGeometry x="590" y="1040" width="80" height="80" as="geometry" />
        </mxCell>
      </root>
    </mxGraphModel>
  </diagram>
</mxfile>
